<?xml version="1.0" standalone="no"?>
<!DOCTYPE svg PUBLIC "-//W3C//DTD SVG 20010904//EN"
 "http://www.w3.org/TR/2001/REC-SVG-20010904/DTD/svg10.dtd">
<svg version="1.0" xmlns="http://www.w3.org/2000/svg"
 width="300.000000pt" height="300.000000pt" viewBox="0 0 300.000000 300.000000"
 preserveAspectRatio="xMidYMid meet">
<metadata>
Created by potrace 1.10, written by Peter Selinger 2001-2011
</metadata>
<g transform="translate(0.000000,300.000000) scale(0.050000,-0.050000)"
fill="#000000" stroke="none">
<path d="M2989 4272 c-5 -12 -11 -85 -14 -162 l-5 -140 -128 -45 c-1093 -389
-1782 -1254 -1277 -1601 186 -129 607 -183 974 -126 228 36 219 53 -24 45
-1201 -37 -1067 913 220 1555 112 56 210 102 217 102 7 0 6 -75 -1 -167 l-14
-168 116 -10 c143 -12 121 -41 167 225 45 264 30 241 186 285 118 33 66 35
-84 3 -58 -12 -67 -9 -57 17 43 111 40 175 -8 176 -26 1 -95 9 -154 17 -72 10
-109 8 -114 -6z"/>
<path d="M3552 3759 c-273 -38 -274 -54 -2 -53 1306 6 994 -1060 -498 -1699
-87 -38 -161 -65 -164 -61 -4 4 58 141 138 305 122 251 142 306 125 344 -21
45 -51 61 -51 26 0 -45 -67 -81 -151 -81 -98 0 -103 9 -64 120 38 105 52 120
114 120 40 0 59 12 67 40 9 36 0 40 -88 40 l-98 0 0 -90 c0 -49 -9 -90 -19
-90 -11 0 -25 -31 -32 -70 -11 -58 -22 -70 -64 -70 -42 0 -48 -7 -38 -45 7
-25 36 -148 64 -275 28 -126 55 -244 60 -262 8 -25 -26 -42 -166 -80 -222 -60
-164 -75 67 -17 1560 390 2519 1590 1498 1873 -128 35 -519 49 -698 25z"/>
<path d="M2426 3491 c-252 -57 -204 -66 367 -66 307 0 587 -6 623 -14 36 -8
64 -6 64 4 0 74 -810 132 -1054 76z"/>
<path d="M2168 3378 c-54 -67 -68 -116 -48 -167 29 -76 56 -62 71 37 17 115 8
169 -23 130z"/>
<path d="M2247 3351 c15 -40 -79 -349 -120 -394 -43 -47 -9 -62 123 -53 93 6
95 7 100 76 6 97 87 360 111 360 10 0 19 9 19 20 0 11 -54 20 -122 20 -99 0
-120 -6 -111 -29z"/>
<path d="M2540 3336 c0 -69 -81 -343 -112 -378 -48 -53 -34 -58 167 -58 220 1
240 8 257 94 16 83 -20 100 -83 37 -94 -94 -154 -60 -108 60 19 52 22 53 58
20 48 -43 74 -29 91 51 18 79 5 89 -58 47 -50 -32 -52 -32 -52 7 0 111 103
151 140 54 32 -83 100 -36 100 69 0 39 -11 41 -200 41 -192 0 -200 -2 -200
-44z"/>
<path d="M3020 3327 c0 -75 -78 -331 -113 -370 -40 -45 -24 -50 186 -54 195
-4 247 16 247 98 0 22 1 46 2 54 3 36 -44 23 -85 -24 -68 -79 -144 -70 -126
14 17 85 37 104 68 66 41 -49 73 -36 96 39 25 84 0 110 -56 59 -50 -45 -66
-28 -49 50 17 80 101 87 130 11 27 -70 75 -63 96 15 26 93 22 95 -197 95
l-199 0 0 -53z"/>
<path d="M3503 3325 c0 -78 -76 -324 -112 -364 -46 -50 -32 -54 192 -47 214 7
236 16 237 101 0 56 -42 58 -90 5 -63 -69 -136 -54 -119 25 18 87 46 115 71
70 31 -55 69 -41 93 35 25 84 0 110 -56 59 -50 -45 -66 -28 -49 50 17 80 99
87 134 10 30 -65 79 -55 99 19 23 87 12 92 -203 92 l-197 0 0 -55z"/>
<path d="M2924 3196 c-13 -13 -23 -51 -23 -85 2 -61 2 -61 30 17 32 85 29 104
-7 68z"/>
<path d="M3855 3186 c-35 -9 -51 -86 -17 -86 58 0 26 -186 -38 -220 -48 -26
-361 -26 -429 0 -75 28 -63 -7 27 -78 216 -171 717 115 583 333 -40 64 -55 70
-126 51z"/>
<path d="M2558 2660 c-25 -81 -26 -100 -5 -100 15 0 27 18 27 40 0 54 32 51
47 -5 12 -44 13 -44 62 15 51 62 67 56 30 -11 -15 -29 -14 -39 5 -39 43 1 69
27 83 83 7 29 18 68 25 85 21 54 -56 37 -105 -23 l-44 -55 -13 55 c-23 90 -76
68 -112 -45z"/>
<path d="M2938 2727 c-19 -22 -14 -38 23 -78 38 -41 40 -49 12 -49 -18 0 -33
9 -33 20 0 11 -9 20 -20 20 -11 0 -20 -13 -20 -30 0 -21 21 -30 71 -30 84 0
110 44 58 101 -35 39 -35 40 10 34 26 -3 50 4 54 16 12 32 -128 29 -155 -4z"/>
<path d="M3189 2690 c-17 -88 -1 -130 49 -130 45 0 102 50 102 90 0 16 16 37
35 48 27 15 29 25 12 43 -33 33 -63 8 -83 -66 -9 -34 -28 -66 -43 -71 -26 -9
-22 38 11 124 9 23 1 32 -29 32 -31 0 -44 -17 -54 -70z"/>
</g>
</svg>
