<?xml version="1.0" standalone="no"?>
<!DOCTYPE svg PUBLIC "-//W3C//DTD SVG 20010904//EN"
 "http://www.w3.org/TR/2001/REC-SVG-20010904/DTD/svg10.dtd">
<svg version="1.0" xmlns="http://www.w3.org/2000/svg"
 width="900.000000pt" height="552.000000pt" viewBox="0 0 900.000000 552.000000"
 preserveAspectRatio="xMidYMid meet">
<metadata>
Created by potrace 1.10, written by Peter Selinger 2001-2011
</metadata>
<g transform="translate(0.000000,552.000000) scale(0.100000,-0.100000)"
fill="#000000" stroke="none">
<path d="M6963 3863 c-28 -5 -52 -38 -113 -158 -41 -80 -48 -103 -47 -147 0
-29 -7 -84 -16 -123 -36 -153 -47 -205 -47 -231 0 -15 -7 -66 -15 -113 -20
-118 -49 -494 -43 -561 18 -206 84 -376 188 -481 73 -74 105 -93 205 -120 87
-23 112 -23 205 0 159 39 287 144 387 317 50 87 66 148 66 253 0 83 -3 103
-25 146 -29 57 -55 87 -113 130 -94 71 -172 95 -306 95 -106 0 -163 -12 -271
-56 -31 -12 -59 -20 -62 -17 -30 30 34 561 99 823 37 152 39 165 19 198 -15
27 -63 55 -83 51 -3 -1 -16 -4 -28 -6z m439 -1195 c133 -40 115 -229 -37 -384
-91 -93 -176 -123 -250 -89 -69 34 -116 102 -150 222 -29 101 -24 107 155 201
110 58 202 74 282 50z"/>
<path d="M1805 3850 c-22 -5 -58 -11 -80 -16 -70 -13 -185 -73 -234 -122 -56
-57 -88 -137 -97 -243 -6 -65 -4 -77 14 -99 15 -19 29 -25 60 -25 49 0 73 20
97 78 50 123 68 147 129 176 118 55 254 48 302 -14 48 -63 64 -144 64 -324 0
-161 -5 -204 -47 -366 -8 -33 -20 -71 -25 -85 -6 -14 -14 -38 -18 -55 -12 -45
-31 -92 -70 -170 -39 -78 -58 -88 -114 -62 -75 35 -259 77 -342 77 -98 0 -218
-52 -264 -115 -51 -69 -54 -85 -54 -225 1 -126 2 -138 27 -185 76 -145 224
-212 384 -174 46 11 101 32 133 51 8 4 22 11 30 15 33 14 130 95 178 147 28
31 56 56 63 56 34 0 159 -120 201 -193 66 -115 197 -129 259 -28 41 68 15 134
-100 248 -42 41 -109 100 -149 131 -66 49 -73 58 -67 81 4 14 13 33 21 42 8 8
14 20 14 26 0 6 6 24 14 40 63 126 117 304 151 503 13 73 16 134 12 255 -5
174 -19 248 -62 340 -64 136 -136 196 -269 226 -87 20 -100 21 -161 9z m-265
-1480 c143 -51 155 -57 158 -74 4 -17 -92 -116 -112 -116 -5 0 -17 -6 -25 -13
-9 -7 -41 -22 -71 -32 -52 -17 -58 -17 -88 -1 -46 24 -62 55 -69 135 -5 56 -2
75 11 96 15 22 23 25 79 25 37 0 85 -8 117 -20z"/>
<path d="M3670 3688 c-191 -53 -221 -59 -395 -88 -38 -6 -101 -18 -140 -26
-38 -8 -95 -14 -126 -14 -46 0 -63 -5 -97 -30 -23 -17 -42 -33 -42 -38 0 -4
-20 -29 -45 -57 -26 -29 -45 -60 -45 -73 0 -13 -7 -38 -16 -55 -29 -55 -33
-65 -54 -119 -27 -71 -27 -160 0 -203 47 -76 111 -98 316 -109 139 -8 200 -35
250 -111 26 -41 26 -203 0 -267 -114 -279 -230 -361 -419 -297 -34 11 -66 24
-72 27 -18 12 -80 32 -98 32 -33 0 -77 -33 -88 -67 -12 -38 -2 -81 28 -111 31
-32 130 -86 230 -127 59 -25 222 -24 283 1 123 50 231 155 300 294 66 133 87
199 95 310 8 109 -6 202 -42 276 -36 76 -134 173 -193 195 -25 9 -61 21 -80
28 -19 7 -88 19 -152 26 -65 7 -122 16 -128 20 -22 14 -3 72 73 222 21 42 22
42 62 35 141 -25 350 13 595 109 30 11 65 23 77 26 13 3 36 21 53 40 48 54 37
114 -28 151 -25 14 -52 14 -102 0z"/>
<path d="M5525 3661 c-101 -34 -175 -89 -201 -150 -24 -55 -54 -207 -54 -272
0 -55 2 -58 35 -79 34 -21 37 -21 61 -5 32 21 52 69 81 195 11 50 47 84 110
103 73 21 99 21 182 1 101 -26 167 -76 202 -153 25 -57 27 -273 3 -365 -34
-134 -83 -272 -115 -326 -5 -8 -14 -26 -19 -40 -13 -33 -48 -56 -63 -41 -6 6
-22 11 -36 11 -15 0 -48 7 -75 15 -128 39 -286 6 -367 -75 -46 -46 -79 -119
-79 -173 0 -76 63 -182 133 -225 124 -77 321 -37 467 96 32 28 62 52 66 52 12
0 144 -103 214 -167 42 -38 83 -66 117 -78 l52 -18 39 25 c44 30 56 63 42 121
-10 48 -45 93 -117 154 -32 26 -67 56 -78 66 -11 10 -44 34 -72 53 -29 19 -53
38 -53 42 0 4 18 45 41 92 58 120 84 185 99 250 4 19 12 49 18 65 27 80 45
234 39 341 -5 104 -10 128 -46 219 -47 120 -168 220 -325 269 -67 22 -234 20
-301 -3z m31 -1287 c27 -9 56 -18 64 -20 32 -11 -95 -84 -144 -84 -28 0 -66
31 -66 53 0 27 47 66 81 67 8 0 38 -7 65 -16z"/>
<path d="M4266 2902 c-72 -40 -107 -100 -107 -188 -1 -61 2 -69 27 -90 50 -43
98 -27 143 49 22 36 24 37 84 37 89 0 179 -17 189 -35 5 -8 22 -22 39 -30 27
-14 33 -14 65 1 53 25 84 72 84 127 0 41 -5 52 -39 85 -33 32 -51 40 -122 55
-52 11 -128 17 -199 17 -106 0 -119 -3 -164 -28z"/>
</g>
</svg>
